<?xml version="1.0" encoding="utf-8"?>
<!-- Generator: Adobe Illustrator 13.0.0, SVG Export Plug-In  -->
<!DOCTYPE svg PUBLIC "-//W3C//DTD SVG 1.1//EN" "http://www.w3.org/Graphics/SVG/1.1/DTD/svg11.dtd" [
	<!ENTITY ns_flows "http://ns.adobe.com/Flows/1.0/">
]>
<svg version="1.1"
	 xmlns="http://www.w3.org/2000/svg" xmlns:xlink="http://www.w3.org/1999/xlink" xmlns:a="http://ns.adobe.com/AdobeSVGViewerExtensions/3.0/"
	 x="0px" y="0px" width="301px" height="464px" viewBox="0 0 301 464" enable-background="new 0 0 301 464" xml:space="preserve">
<defs>
</defs>
<line fill="none" stroke="#000000" stroke-width="5" x1="2.7382813" y1="317.9750977" x2="2.7382813" y2="206.5708008"/>
<path fill="none" stroke="#000000" stroke-width="5" d="M193.6083984,318.7387695
	c0.34375-32.0947266,0.3798828-64.1640625,0.1318359-96.2495117"/>
<line fill="none" stroke="#000000" stroke-width="5" x1="1.25" y1="206.5708008" x2="97.7490234" y2="150.8657227"/>
<path fill="none" stroke="#000000" stroke-width="5" d="M116.6972656,362.9526367
	c25.9121094-15.3574219,52.1582031-30.0878906,78.3476563-44.9775391"/>
<path fill="none" stroke="#000000" stroke-width="5" d="M174.8105469,196.4414063
	c-25.9013672-14.9458008-51.8017578-29.8916016-77.6630859-44.8383789"/>
<path fill="none" stroke="#000000" stroke-width="5" d="M81.6484375,363.5102539
	c-26.2758789-15.1660156-52.5600586-30.3486328-78.8486328-45.5351563"/>
<line fill="none" stroke="#000000" stroke-width="5" x1="96.7617188" y1="150.5717773" x2="96.7617188" y2="76.2988281"/>
<line fill="none" stroke="#000000" stroke-width="5" x1="258.6591797" y1="346.2836914" x2="194.3515625" y2="309.1391602"/>
<line fill="none" stroke="#000000" stroke-width="5" x1="249.3916016" y1="361.8735352" x2="185.0820313" y2="324.7241211"/>
<text transform="matrix(1 0 0 1 251.1884766 384.0864258)" font-family="'ArialMT'" font-size="53.4780617">O</text>
<rect x="22.8569336" y="7.5942383" fill="none" width="211.6850586" height="64.6152344"/>
<text transform="matrix(1 0 0 1 66.3129883 72.2109375)" font-family="'ArialMT'" font-size="53.4780617">NH</text>
<line fill="none" stroke="#000000" stroke-width="5" x1="168.4189453" y1="204.4179688" x2="104.1113281" y2="167.2724609"/>
<text transform="matrix(1 0 0 1 174.3798828 221.8662109)" font-family="'ArialMT'" font-size="53.4780617">N</text>
<text transform="matrix(1 0 0 1 79.9804688 401.9125977)" font-family="'ArialMT'" font-size="53.4780617">N</text>
<text transform="matrix(1 0 0 1 79.6787109 446.5375977)" font-family="'ArialMT'" font-size="53.4780617">H</text>
<line fill="none" stroke="#000000" stroke-width="5" x1="14.8051758" y1="298.362793" x2="14.8051758" y2="224.1044922"/>
<text transform="matrix(1 0 0 1 90.8164063 354.8110352)" font-family="'ArialMT'" font-size="26.7390308">1</text>
<text transform="matrix(1 0 0 1 161.7490234 312.105957)" font-family="'ArialMT'" font-size="26.7390308">2</text>
<text transform="matrix(1 0 0 1 161.3808594 231.8916016)" font-family="'ArialMT'" font-size="26.7390308">3</text>
<text transform="matrix(1 0 0 1 88.2207031 184.730957)" font-family="'ArialMT'" font-size="26.7390308">4</text>
<text transform="matrix(1 0 0 1 19.8925781 223.7236328)" font-family="'ArialMT'" font-size="26.7390308">5</text>
<text transform="matrix(1 0 0 1 22.1166992 312.4790039)" font-family="'ArialMT'" font-size="26.7390308">6</text>
<text transform="matrix(1 0 0 1 147.7705078 81.4594727)" font-family="'MyriadPro-Regular'" font-size="36">2</text>
</svg>
